<svg width="40" height="40" viewBox="0 0 40 40" fill="none" xmlns="http://www.w3.org/2000/svg">
<path d="M30 35C32.7614 35 35 32.7614 35 30C35 27.2386 32.7614 25 30 25C27.2386 25 25 27.2386 25 30C25 32.7614 27.2386 35 30 35Z" stroke="#0077C0" stroke-width="3" stroke-linecap="round" stroke-linejoin="round"/>
<path d="M10 15C12.7614 15 15 12.7614 15 10C15 7.23858 12.7614 5 10 5C7.23858 5 5 7.23858 5 10C5 12.7614 7.23858 15 10 15Z" stroke="#0077C0" stroke-width="3" stroke-linecap="round" stroke-linejoin="round"/>
<path d="M21.6667 10H26.6667C27.5507 10 28.3986 10.3512 29.0237 10.9763C29.6488 11.6014 30 12.4493 30 13.3333V25" stroke="#0077C0" stroke-width="3" stroke-linecap="round" stroke-linejoin="round"/>
<path d="M10 15V35" stroke="#0077C0" stroke-width="3" stroke-linecap="round" stroke-linejoin="round"/>
</svg>
