<?xml version="1.0" ?><svg id="Layer_1" style="enable-background:new 0 0 512 512;" version="1.1" viewBox="0 0 512 512" xml:space="preserve" xmlns="http://www.w3.org/2000/svg" xmlns:xlink="http://www.w3.org/1999/xlink"><style type="text/css">
	.st0{fill:#50AEC4;}
	.st1{fill:#F5C933;}
</style><g><rect class="st0" height="298.7" width="512" y="106.7"/><path class="st1" d="M33.6,317.3c0-6,5.4-9,9.6-9c5.7,0,8.7,3.4,8.7,7.8c0,2.5-0.5,4.1-1.6,6.5c0,0-9.4,19.5-13,27   c-0.5,0.9-0.6,2-0.6,3.6c0,2.4,2.4,4.4,4.8,4.5c2.2,0.1,4.7-2.1,4.7-4.5c0-3-1.5-4.3-3.1-4.3c-2,0-2.7,0.8-2.7,2.2   c0,1,0.5,1.4,1.1,1.4c1.7,0,1.2-2.2,1.2-2.2c0.8,0.2,1.5,1,1.1,2.1c0.6,0.1,1.2,0.5,1.6,1c-0.4,0.4-1,0.8-1.6,0.9   c0.4,1.3-0.1,1.9-1.3,2.2c0.2-0.5,0.2-1,0.2-1.4c-1.8,0.5-4.5-0.3-4.5-3.4c0-3.1,2.1-5.6,6.1-5c-0.9-0.5-1.4-1.4-1.5-2.4   c0.7,0.3,1.5,0.3,1.5,0.3c-0.5-0.8-1.1-1.5-1.1-3.1c0.7,0.3,1.4,1,2.4,0.6c-1.5-2.9,0.3-6.9,5-7.9c-1.7,2-2.5,4.1-2.5,6.3   c0,6.9,1.9,8.1,1.9,12.9c0,2-1,4.2-3.1,5.7v-0.1c1.4,0.4,2.2,1,2.7,1.9c-3.1,0.9-7.6,0.9-10.1-0.1c-2.8-0.3-4.7-2.5-5.3-3.5   c-0.6-1.1-1.7-5,0-8.5c1.9-3.9,10.6-22.3,13.3-28.1c0.6-1.2,0.9-2.5,0.9-3.9c0-3.5-3.3-4.8-5.1-4.8c-2.2,0-4.5,1.7-4.5,3.8   c0,1.3,0.7,2.1,1.8,2.1c2.5,0,2.3-2.1,1.8-3.5c1.6,0.7,2.5,1.9,2.2,3.3c0.9,0.1,1.7,0.5,2.5,1.4c-0.6,0.8-1.4,1.3-2.5,1.4   c0.5,2-0.9,2.9-2.2,3.4c0.4-1.5,0.7-3.2-1.8-3.2c-1.9,0-3.3-0.3-4.2-1.5c0,1.6-0.2,8-0.2,8c-0.1,2.4,3.2,2.3,5.3,1.6   c-0.8,2.7-2.4,4.2-6.2,3.9c0.9,0.4,1.9,1.2,1.9,2.9c0,2.2-1.8,4.7-3,5.5L33.6,317.3z"/><path class="st1" d="M34.8,317.3c0-6-5.4-9-9.6-9c-5.7,0-8.7,3.4-8.7,7.8c0,2.5,0.5,4.1,1.6,6.5c0,0,9.4,19.5,13,27   c0.5,0.9,0.6,2,0.6,3.6c0,2.4-2.4,4.4-4.8,4.5c-2.2,0.1-4.7-2.1-4.7-4.5c0-3,1.5-4.3,3.1-4.3c2,0,2.7,0.8,2.7,2.2   c0,1-0.5,1.4-1.1,1.4c-1.7,0-1.2-2.2-1.2-2.2c-0.8,0.2-1.5,1-1.1,2.1c-0.6,0.1-1.2,0.5-1.6,1c0.4,0.4,1,0.8,1.6,0.9   c-0.4,1.3,0.1,1.9,1.3,2.2c-0.2-0.5-0.2-1-0.2-1.4c1.8,0.5,4.5-0.3,4.5-3.4c0-3.1-2.1-5.6-6.1-5c0.9-0.5,1.4-1.4,1.5-2.4   c-0.7,0.3-1.5,0.3-1.5,0.3c0.5-0.8,1.1-1.5,1.1-3.1c-0.7,0.3-1.4,1-2.4,0.6c1.5-2.9-0.3-6.9-5-7.9c1.7,2,2.5,4.1,2.5,6.3   c0,6.9-1.9,8.1-1.9,12.9c0,2,1,4.2,3.1,5.7v-0.1c-1.4,0.4-2.2,1-2.7,1.9c3.1,0.9,7.6,0.9,10.1-0.1c2.8-0.3,4.7-2.5,5.3-3.5   c0.6-1.1,1.7-5,0-8.5c-1.9-3.9-10.6-22.3-13.3-28.1c-0.6-1.2-0.9-2.5-0.9-3.9c0-3.5,3.3-4.8,5.1-4.8c2.2,0,4.5,1.7,4.5,3.8   c0,1.3-0.7,2.1-1.8,2.1c-2.5,0-2.3-2.1-1.8-3.5c-1.6,0.7-2.5,1.9-2.2,3.3c-0.9,0.1-1.7,0.5-2.5,1.4c0.6,0.8,1.4,1.3,2.5,1.4   c-0.5,2,0.9,2.9,2.2,3.4c-0.4-1.5-0.7-3.2,1.8-3.2c1.9,0,3.3-0.3,4.2-1.5c0,1.6,0.2,8,0.2,8c0.1,2.4-3.2,2.3-5.3,1.6   c0.8,2.7,2.4,4.2,6.2,3.9c-0.9,0.4-1.9,1.2-1.9,2.9c0,2.2,1.8,4.7,3,5.5L34.8,317.3z"/><path class="st1" d="M34.2,381.9c0,0,2.8,2.4,3.8,1.2c1.6-1.9-4.8-11.5-4.8-14.9c0-5.5,3.7-7,8.3-7.8c3.1-0.5,8.1,0.2,8.1,0.2   c-0.9,1.3-1.6,1.6-3.1,1.7c1.8,0.9,3.6,2.9,3.6,6c0,4.8-2,6.7-2,12.1c0,3,2.4,6.8,2.4,6.8c-4.3-0.4-6.5-4.4-5.2-7.6   c-0.7-0.1-1.3,0.1-1.9,0.6c-0.3-0.9,0.2-1.9,0.9-2.8c-0.5-0.3-0.9-0.1-1.8,0.1c0.1-0.9,0.6-1.9,2-2.8c-3.9,1-6.3-1.7-6.3-4.5   c0-2.1,1.5-3.7,3-3.7c0.5,0,1.2,0.2,1.6,0.5c0.3-0.6,0.1-1.4-0.2-2c1.1,0.3,1.8,0.9,1.3,2.2c0.8,0.1,1.5,0.4,1.9,0.9   c-0.4,0.6-1.1,0.9-1.9,0.9c0.6,1.2-0.1,1.9-1,2.5c0,0,0.6-2.5-1-2.5c-0.7,0-1.4,0.2-1.4,1.3c0,0.9,0.8,2.2,2.7,2.1   c1.8-0.1,3.3-1.3,3.3-4.2c0-2.7-2.2-4.1-5.1-4.2c-2.6-0.1-4.6,1.3-4.6,4c0,3.6,5.2,11.7,5.2,14.9c0,2.4-2.2,3.7-4.3,3.7   c-2.7,0-5-2.7-5-2.7L34.2,381.9z"/><path class="st1" d="M34.2,381.9c0,0-2.8,2.4-3.8,1.2c-1.6-1.9,4.8-11.5,4.8-14.9c0-5.5-3.7-7-8.3-7.8c-3.1-0.5-8.1,0.2-8.1,0.2   c0.9,1.3,1.6,1.6,3.1,1.7c-1.8,0.9-3.6,2.9-3.6,6c0,4.8,2,6.7,2,12.1c0,3-2.4,6.8-2.4,6.8c4.3-0.4,6.5-4.4,5.2-7.6   c0.7-0.1,1.3,0.1,1.9,0.6c0.3-0.9-0.2-1.9-0.9-2.8c0.5-0.3,0.9-0.1,1.8,0.1c-0.1-0.9-0.6-1.9-2-2.8c3.9,1,6.3-1.7,6.3-4.5   c0-2.1-1.5-3.7-3-3.7c-0.5,0-1.2,0.2-1.6,0.5c-0.3-0.6-0.1-1.4,0.2-2c-1.1,0.3-1.8,0.9-1.3,2.2c-0.8,0.1-1.5,0.4-1.9,0.9   c0.4,0.6,1.1,0.9,1.9,0.9c-0.6,1.2,0.1,1.9,1,2.5c0,0-0.6-2.5,1-2.5c0.7,0,1.4,0.2,1.4,1.3c0,0.9-0.8,2.2-2.7,2.1   c-1.8-0.1-3.3-1.3-3.3-4.2c0-2.7,2.2-4.1,5.1-4.2c2.6-0.1,4.6,1.3,4.6,4c0,3.6-5.2,11.7-5.2,14.9c0,2.4,2.2,3.7,4.3,3.7   c2.7,0,5-2.7,5-2.7L34.2,381.9z"/><path class="st1" d="M33.6,212.7c0-6,5.4-9,9.6-9c5.7,0,8.7,3.4,8.7,7.8c0,2.5-0.5,4.1-1.6,6.5c0,0-9.4,19.5-13,27   c-0.5,0.9-0.6,2-0.6,3.6c0,2.4,2.4,4.4,4.8,4.5c2.2,0.1,4.7-2.1,4.7-4.5c0-3-1.5-4.3-3.1-4.3c-2,0-2.7,0.8-2.7,2.2   c0,1,0.5,1.4,1.1,1.4c1.7,0,1.2-2.2,1.2-2.2c0.8,0.2,1.5,1,1.1,2.1c0.6,0.1,1.2,0.5,1.6,1c-0.4,0.4-1,0.8-1.6,0.9   c0.4,1.3-0.1,1.9-1.3,2.2c0.2-0.5,0.2-0.9,0.2-1.4c-1.8,0.5-4.5-0.3-4.5-3.4c0-3.1,2.1-5.6,6.1-5c-0.9-0.5-1.4-1.4-1.5-2.4   c0.7,0.3,1.5,0.3,1.5,0.3c-0.5-0.8-1.1-1.5-1.1-3.1c0.7,0.3,1.4,1,2.4,0.6c-1.5-2.9,0.3-6.9,5-7.9c-1.7,2-2.5,4.1-2.5,6.3   c0,6.9,1.9,8.1,1.9,12.9c0,2-1,4.2-3.1,5.7v-0.1c1.4,0.4,2.2,1,2.7,1.9c-3.1,0.9-7.6,0.9-10.1-0.1c-2.8-0.3-4.7-2.5-5.3-3.5   c-0.6-1.1-1.7-5,0-8.5c1.9-3.9,10.6-22.3,13.3-28.1c0.6-1.2,0.9-2.5,0.9-3.9c0-3.5-3.3-4.8-5.1-4.8c-2.2,0-4.5,1.7-4.5,3.8   c0,1.3,0.7,2.1,1.8,2.1c2.5,0,2.3-2.1,1.8-3.5c1.6,0.7,2.5,1.9,2.2,3.3c0.9,0.1,1.7,0.5,2.5,1.4c-0.6,0.8-1.4,1.3-2.5,1.4   c0.5,2-0.9,2.9-2.2,3.4c0.4-1.5,0.7-3.2-1.8-3.2c-1.9,0-3.3-0.3-4.2-1.5c0,1.6-0.2,8-0.2,8c-0.1,2.4,3.2,2.3,5.3,1.6   c-0.8,2.7-2.4,4.2-6.2,3.9c0.9,0.4,1.9,1.2,1.9,2.9c0,2.2-1.8,4.7-3,5.4L33.6,212.7z"/><path class="st1" d="M34.8,212.7c0-6-5.4-9-9.6-9c-5.7,0-8.7,3.4-8.7,7.8c0,2.5,0.5,4.1,1.6,6.5c0,0,9.4,19.5,13,27   c0.5,0.9,0.6,2,0.6,3.6c0,2.4-2.4,4.4-4.8,4.5c-2.2,0.1-4.7-2.1-4.7-4.5c0-3,1.5-4.3,3.1-4.3c2,0,2.7,0.8,2.7,2.2   c0,1-0.5,1.4-1.1,1.4c-1.7,0-1.2-2.2-1.2-2.2c-0.8,0.2-1.5,1-1.1,2.1c-0.6,0.1-1.2,0.5-1.6,1c0.4,0.4,1,0.8,1.6,0.9   c-0.4,1.3,0.1,1.9,1.3,2.2c-0.2-0.5-0.2-0.9-0.2-1.4c1.8,0.5,4.5-0.3,4.5-3.4c0-3.1-2.1-5.6-6.1-5c0.9-0.5,1.4-1.4,1.5-2.4   c-0.7,0.3-1.5,0.3-1.5,0.3c0.5-0.8,1.1-1.5,1.1-3.1c-0.7,0.3-1.4,1-2.4,0.6c1.5-2.9-0.3-6.9-5-7.9c1.7,2,2.5,4.1,2.5,6.3   c0,6.9-1.9,8.1-1.9,12.9c0,2,1,4.2,3.1,5.7v-0.1c-1.4,0.4-2.2,1-2.7,1.9c3.1,0.9,7.6,0.9,10.1-0.1c2.8-0.3,4.7-2.5,5.3-3.5   c0.6-1.1,1.7-5,0-8.5c-1.9-3.9-10.6-22.3-13.3-28.1c-0.6-1.2-0.9-2.5-0.9-3.9c0-3.5,3.3-4.8,5.1-4.8c2.2,0,4.5,1.7,4.5,3.8   c0,1.3-0.7,2.1-1.8,2.1c-2.5,0-2.3-2.1-1.8-3.5c-1.6,0.7-2.5,1.9-2.2,3.3c-0.9,0.1-1.7,0.5-2.5,1.4c0.6,0.8,1.4,1.3,2.5,1.4   c-0.5,2,0.9,2.9,2.2,3.4c-0.4-1.5-0.7-3.2,1.8-3.2c1.9,0,3.3-0.3,4.2-1.5c0,1.6,0.2,8,0.2,8c0.1,2.4-3.2,2.3-5.3,1.6   c0.8,2.7,2.4,4.2,6.2,3.9c-0.9,0.4-1.9,1.2-1.9,2.9c0,2.2,1.8,4.7,3,5.4L34.8,212.7z"/><path class="st1" d="M34.8,194.7c0,6-5.4,9-9.6,9c-5.7,0-8.7-3.4-8.7-7.8c0-2.5,0.5-4.1,1.6-6.5c0,0,9.4-19.5,13-27   c0.5-0.9,0.6-2,0.6-3.6c0-2.4-2.4-4.4-4.8-4.5c-2.2-0.1-4.7,2.1-4.7,4.5c0,3,1.5,4.3,3.1,4.3c2,0,2.7-0.8,2.7-2.2   c0-1-0.5-1.4-1.1-1.4c-1.7,0-1.2,2.3-1.2,2.3c-0.8-0.2-1.5-1-1.1-2.1c-0.6-0.1-1.2-0.5-1.6-1c0.4-0.4,1-0.8,1.6-0.9   c-0.4-1.3,0.1-1.9,1.3-2.2c-0.2,0.5-0.2,1-0.2,1.4c1.8-0.5,4.5,0.3,4.5,3.4c0,3.1-2.1,5.6-6.1,5c0.9,0.5,1.4,1.4,1.5,2.4   c-0.7-0.3-1.5-0.3-1.5-0.3c0.5,0.8,1.1,1.5,1.1,3.1c-0.7-0.3-1.4-1-2.4-0.6c1.5,2.9-0.3,6.9-5,7.9c1.7-2,2.5-4.1,2.5-6.3   c0-6.9-1.9-8.1-1.9-12.9c0-2,1-4.2,3.1-5.7v0.1c-1.4-0.4-2.2-1-2.7-1.9c3.1-0.9,7.6-0.9,10.1,0.1c2.8,0.3,4.7,2.5,5.3,3.5   c0.6,1.1,1.7,5,0,8.5c-1.9,3.9-10.6,22.3-13.3,28.1c-0.6,1.2-0.9,2.5-0.9,3.9c0,3.5,3.3,4.8,5.1,4.8c2.2,0,4.5-1.7,4.5-3.8   c0-1.3-0.7-2.1-1.8-2.1c-2.5,0-2.3,2.1-1.8,3.5c-1.6-0.7-2.5-1.9-2.2-3.3c-0.9-0.1-1.7-0.5-2.5-1.4c0.6-0.8,1.4-1.3,2.5-1.4   c-0.5-2,0.9-2.9,2.2-3.4c-0.4,1.5-0.7,3.2,1.8,3.2c1.9,0,3.3,0.3,4.2,1.5c0-1.6,0.2-8,0.2-8c0.1-2.4-3.2-2.3-5.3-1.6   c0.8-2.8,2.4-4.2,6.2-3.9c-0.9-0.4-1.9-1.2-1.9-2.9c0-2.2,1.8-4.7,3-5.4L34.8,194.7z"/><path class="st1" d="M33.6,194.7c0,6,5.4,9,9.6,9c5.7,0,8.7-3.4,8.7-7.8c0-2.5-0.5-4.1-1.6-6.5c0,0-9.4-19.5-13-27   c-0.5-0.9-0.6-2-0.6-3.6c0-2.4,2.4-4.4,4.8-4.5c2.2-0.1,4.7,2.1,4.7,4.5c0,3-1.5,4.3-3.1,4.3c-2,0-2.7-0.8-2.7-2.2   c0-1,0.5-1.4,1.1-1.4c1.7,0,1.2,2.3,1.2,2.3c0.8-0.2,1.5-1,1.1-2.1c0.6-0.1,1.2-0.5,1.6-1c-0.4-0.4-1-0.8-1.6-0.9   c0.4-1.3-0.1-1.9-1.3-2.2c0.2,0.5,0.2,1,0.2,1.4c-1.8-0.5-4.5,0.3-4.5,3.4c0,3.1,2.1,5.6,6.1,5c-0.9,0.5-1.4,1.4-1.5,2.4   c0.7-0.3,1.5-0.3,1.5-0.3c-0.5,0.8-1.1,1.5-1.1,3.1c0.7-0.3,1.4-1,2.4-0.6c-1.5,2.9,0.3,6.9,5,7.9c-1.7-2-2.5-4.1-2.5-6.3   c0-6.9,1.9-8.1,1.9-12.9c0-2-1-4.2-3.1-5.7v0.1c1.4-0.4,2.2-1,2.7-1.9c-3.1-0.9-7.6-0.9-10.1,0.1c-2.8,0.3-4.7,2.5-5.3,3.5   c-0.6,1.1-1.7,5,0,8.5c1.9,3.9,10.6,22.3,13.3,28.1c0.6,1.2,0.9,2.5,0.9,3.9c0,3.5-3.3,4.8-5.1,4.8c-2.2,0-4.5-1.7-4.5-3.8   c0-1.3,0.7-2.1,1.8-2.1c2.5,0,2.3,2.1,1.8,3.5c1.6-0.7,2.5-1.9,2.2-3.3c0.9-0.1,1.7-0.5,2.5-1.4c-0.6-0.8-1.4-1.3-2.5-1.4   c0.5-2-0.9-2.9-2.2-3.4c0.4,1.5,0.7,3.2-1.8,3.2c-1.9,0-3.3,0.3-4.2,1.5c0-1.6-0.2-8-0.2-8c-0.1-2.4,3.2-2.3,5.3-1.6   c-0.8-2.8-2.4-4.2-6.2-3.9c0.9-0.4,1.9-1.2,1.9-2.9c0-2.2-1.8-4.7-3-5.4L33.6,194.7z"/><path class="st1" d="M34.8,299.4c0,6-5.4,9-9.6,9c-5.7,0-8.7-3.4-8.7-7.8c0-2.5,0.5-4.1,1.6-6.5c0,0,9.4-19.5,13-27   c0.5-0.9,0.6-2,0.6-3.6c0-2.4-2.4-4.4-4.8-4.5c-2.2-0.1-4.7,2.1-4.7,4.5c0,3,1.5,4.3,3.1,4.3c2,0,2.7-0.8,2.7-2.2   c0-0.9-0.5-1.4-1.1-1.4c-1.7,0-1.2,2.3-1.2,2.3c-0.8-0.2-1.5-1-1.1-2.1c-0.6-0.1-1.2-0.5-1.6-1c0.4-0.4,1-0.8,1.6-0.9   c-0.4-1.3,0.1-1.9,1.3-2.2c-0.2,0.5-0.2,1-0.2,1.4c1.8-0.5,4.5,0.3,4.5,3.4c0,3.1-2.1,5.6-6.1,5c0.9,0.5,1.4,1.4,1.5,2.4   c-0.7-0.3-1.5-0.3-1.5-0.3c0.5,0.8,1.1,1.5,1.1,3.1c-0.7-0.3-1.4-1-2.4-0.6c1.5,2.9-0.3,6.9-5,7.9c1.7-2,2.5-4.1,2.5-6.3   c0-6.9-1.9-8.1-1.9-12.9c0-2,1-4.2,3.1-5.7v0.1c-1.4-0.4-2.2-1-2.7-1.9c3.1-0.9,7.6-0.9,10.1,0.1c2.8,0.3,4.7,2.5,5.3,3.5   c0.6,1.1,1.7,5,0,8.5c-1.9,3.9-10.6,22.3-13.3,28.1c-0.6,1.2-0.9,2.5-0.9,3.9c0,3.5,3.3,4.8,5.1,4.8c2.2,0,4.5-1.7,4.5-3.8   c0-1.3-0.7-2.1-1.8-2.1c-2.5,0-2.3,2.1-1.8,3.5c-1.6-0.7-2.5-1.9-2.2-3.3c-0.9-0.1-1.7-0.5-2.5-1.4c0.6-0.8,1.4-1.3,2.5-1.4   c-0.5-2,0.9-2.9,2.2-3.4c-0.4,1.5-0.7,3.2,1.8,3.2c1.9,0,3.3,0.3,4.2,1.5c0-1.6,0.2-8,0.2-8c0.1-2.4-3.2-2.3-5.3-1.6   c0.8-2.7,2.4-4.2,6.2-3.9c-0.9-0.4-1.9-1.2-1.9-2.9c0-2.2,1.8-4.7,3-5.5L34.8,299.4z"/><path class="st1" d="M33.6,299.4c0,6,5.4,9,9.6,9c5.7,0,8.7-3.4,8.7-7.8c0-2.5-0.5-4.1-1.6-6.5c0,0-9.4-19.5-13-27   c-0.5-0.9-0.6-2-0.6-3.6c0-2.4,2.4-4.4,4.8-4.5c2.2-0.1,4.7,2.1,4.7,4.5c0,3-1.5,4.3-3.1,4.3c-2,0-2.7-0.8-2.7-2.2   c0-0.9,0.5-1.4,1.1-1.4c1.7,0,1.2,2.3,1.2,2.3c0.8-0.2,1.5-1,1.1-2.1c0.6-0.1,1.2-0.5,1.6-1c-0.4-0.4-1-0.8-1.6-0.9   c0.4-1.3-0.1-1.9-1.3-2.2c0.2,0.5,0.2,1,0.2,1.4c-1.8-0.5-4.5,0.3-4.5,3.4c0,3.1,2.1,5.6,6.1,5c-0.9,0.5-1.4,1.4-1.5,2.4   c0.7-0.3,1.5-0.3,1.5-0.3c-0.5,0.8-1.1,1.5-1.1,3.1c0.7-0.3,1.4-1,2.4-0.6c-1.5,2.9,0.3,6.9,5,7.9c-1.7-2-2.5-4.1-2.5-6.3   c0-6.9,1.9-8.1,1.9-12.9c0-2-1-4.2-3.1-5.7v0.1c1.4-0.4,2.2-1,2.7-1.9c-3.1-0.9-7.6-0.9-10.1,0.1c-2.8,0.3-4.7,2.5-5.3,3.5   c-0.6,1.1-1.7,5,0,8.5c1.9,3.9,10.6,22.3,13.3,28.1c0.6,1.2,0.9,2.5,0.9,3.9c0,3.5-3.3,4.8-5.1,4.8c-2.2,0-4.5-1.7-4.5-3.8   c0-1.3,0.7-2.1,1.8-2.1c2.5,0,2.3,2.1,1.8,3.5c1.6-0.7,2.5-1.9,2.2-3.3c0.9-0.1,1.7-0.5,2.5-1.4c-0.6-0.8-1.4-1.3-2.5-1.4   c0.5-2-0.9-2.9-2.2-3.4c0.4,1.5,0.7,3.2-1.8,3.2c-1.9,0-3.3,0.3-4.2,1.5c0-1.6-0.2-8-0.2-8c-0.1-2.4,3.2-2.3,5.3-1.6   c-0.8-2.7-2.4-4.2-6.2-3.9c0.9-0.4,1.9-1.2,1.9-2.9c0-2.2-1.8-4.7-3-5.5L33.6,299.4z"/><path class="st1" d="M34.2,130.1c0,0,2.8-2.4,3.8-1.2c1.6,1.9-4.8,11.5-4.8,14.9c0,5.5,3.7,7,8.3,7.8c3.1,0.5,8.1-0.2,8.1-0.2   c-0.9-1.3-1.6-1.6-3.1-1.7c1.8-0.9,3.6-2.9,3.6-6c0-4.8-2-6.7-2-12.1c0-3,2.4-6.8,2.4-6.8c-4.3,0.4-6.5,4.4-5.2,7.6   c-0.7,0.1-1.3-0.1-1.9-0.6c-0.3,0.9,0.2,1.9,0.9,2.8c-0.5,0.3-0.9,0.1-1.8-0.1c0.1,0.9,0.6,1.9,2,2.8c-3.9-1-6.3,1.7-6.3,4.5   c0,2.1,1.5,3.7,3,3.7c0.5,0,1.2-0.2,1.6-0.5c0.3,0.6,0.1,1.4-0.2,2c1.1-0.3,1.8-0.9,1.3-2.2c0.8-0.1,1.5-0.4,1.9-0.9   c-0.4-0.6-1.1-0.9-1.9-0.9c0.6-1.2-0.1-1.9-1-2.5c0,0,0.6,2.5-1,2.5c-0.7,0-1.4-0.2-1.4-1.3c0-0.9,0.8-2.2,2.7-2.1   c1.8,0.1,3.3,1.3,3.3,4.2c0,2.7-2.2,4.1-5.1,4.2c-2.6,0.1-4.6-1.3-4.6-4c0-3.6,5.2-11.7,5.2-14.9c0-2.4-2.2-3.7-4.3-3.7   c-2.7,0-5,2.7-5,2.7L34.2,130.1z"/><path class="st1" d="M34.2,130.1c0,0-2.8-2.4-3.8-1.2c-1.6,1.9,4.8,11.5,4.8,14.9c0,5.5-3.7,7-8.3,7.8c-3.1,0.5-8.1-0.2-8.1-0.2   c0.9-1.3,1.6-1.6,3.1-1.7c-1.8-0.9-3.6-2.9-3.6-6c0-4.8,2-6.7,2-12.1c0-3-2.4-6.8-2.4-6.8c4.3,0.4,6.5,4.4,5.2,7.6   c0.7,0.1,1.3-0.1,1.9-0.6c0.3,0.9-0.2,1.9-0.9,2.8c0.5,0.3,0.9,0.1,1.8-0.1c-0.1,0.9-0.6,1.9-2,2.8c3.9-1,6.3,1.7,6.3,4.5   c0,2.1-1.5,3.7-3,3.7c-0.5,0-1.2-0.2-1.6-0.5c-0.3,0.6-0.1,1.4,0.2,2c-1.1-0.3-1.8-0.9-1.3-2.2c-0.8-0.1-1.5-0.4-1.9-0.9   c0.4-0.6,1.1-0.9,1.9-0.9c-0.6-1.2,0.1-1.9,1-2.5c0,0-0.6,2.5,1,2.5c0.7,0,1.4-0.2,1.4-1.3c0-0.9-0.8-2.2-2.7-2.1   c-1.8,0.1-3.3,1.3-3.3,4.2c0,2.7,2.2,4.1,5.1,4.2c2.6,0.1,4.6-1.3,4.6-4c0-3.6-5.2-11.7-5.2-14.9c0-2.4,2.2-3.7,4.3-3.7   c2.7,0,5,2.7,5,2.7L34.2,130.1z"/><path class="st0" d="M28.7,298.9c0-0.5-1.1-0.2-1.9,0c-0.8,0.2-1.3,0.6-1.2,1c0,0.5,1,0.2,1.8,0.1   C28.2,299.8,28.7,299.4,28.7,298.9L28.7,298.9z"/><g><path class="st0" d="M26.1,300.5L26.1,300.5h-0.3l-0.5-0.6c-0.1-0.6,0.5-1.1,1.4-1.4c0.6-0.1,1.1-0.3,1.5-0.3h0.3l0.5,0.5    c0,0.6-0.5,1.2-1.5,1.4C26.9,300.4,26.5,300.5,26.1,300.5L26.1,300.5z"/></g><path class="st1" d="M267.3,309.6c-40.1,0.1-68.3-32-70.8-64.1c0,0-1.6-0.6-1.8,0.8c-0.5,3.4,0.9,13.9,0.4,13.1   c-1-1.3-8.3-20.9-9.6-18.8c-1.8,2.9,8.2,25.2,7.6,25.8c-2,2.4-13.5-21.8-14.4-20c-3.5,6.8,14.2,28.7,14,29.6   c-0.4,2.9-13.4-11.8-14.5-10.2c-2.5,3.6,14,16.5,14.9,17.5c2.5,3-9-5.2-9.4-2.4c-0.3,2.3,5.6,7,9.1,9c3.5,2,4.7,1.4,5.7,3.1   c0.8,1.3-6.6-0.8-6.4,0.8c0.4,3.2,8.1,2.5,9.3,4c1.2,1.4-5.3,0.3-5,1.5c0.4,2.1,7,2.4,7.1,3.3c0.1,0.9-4.1,0.3-3.8,2   c0.2,1.5,6.6,1.2,8.2,2.2s-5.7,0.1,0,3c5.7,2.8,12.2,6,21.1,7.7c8.9,1.7,13.4-0.2,13.7-0.8c0.3-0.6-4.2,0.5-10.5-0.7   c-6.3-1.1-14.7-5.1-18.2-7.1c-1.1-0.6,3.4-1.9,2.4-3.1c-0.9-1.2-4.5,0.2-5.9-1.6c-0.9-1.1,1.7-1.1,1.6-1.9c-0.1-0.7-4.9-1.8-5.8-3   c-0.9-1.2,2.2-1,2.3-1.9c0.1-0.6-3.1-1.6-3.3-2.4c-0.2-0.8,3.5-0.6,1.8-1.6c-1.9-1.1-6.9-2.4-7.9-4.2c-0.9-1.8,3.9,0.3,2.6-1.5   c-0.8-1.2-5.5-3.1-6.5-5.9c-0.7-1.8,3.3-0.2,3.3-1.4c0.1-1.8-2.3-0.7-3.1-6c-0.3-1.7,3.1-0.6,3.1-0.6l0.5-0.9c0,0,3.9,2.2,9,8.1   c5.1,5.9,6.5,11.5,11.3,15.5c2.3,1.9,2.3-0.8,7.5,2.5c5.2,3.2,7.4,5.5,12.8,10.2c0.8,0.6,4.3-0.6,14.8,1.5c5.6,1.2,6.8,4.1,6.8,4.1   c0,0.1,3.1-1.9,4.6-4.2c0.6-0.9,1.2,0,1.3-0.2C268,310.3,267.3,309.6,267.3,309.6L267.3,309.6z"/><g><path class="st1" d="M235.6,318.6c-2.1,0-4.4-0.2-6.8-0.7c-9.2-1.8-16.1-5.3-21.1-7.8c-1.8-0.9-2.4-1.5-2.4-2    c0.1-0.6,0.9-0.7,1.7-0.9c0.3-0.1,0.7-0.1,0.8-0.2c-0.8-0.3-2.4-0.5-3.9-0.7c-2.4-0.3-4.4-0.6-4.6-1.6l0-0.1l0.2-0.7    c0.4-0.6,1.5-0.8,2.4-0.9c0.4-0.1,1.2-0.2,1.3-0.3c-0.1-0.2-1.3-0.5-2.2-0.7c-2-0.5-4.6-1.1-4.9-2.6c0.4-0.9,1.4-1,2.9-1    c0.8,0,2.1-0.1,2.2-0.3c-0.5-0.6-1.9-0.8-3.4-1.1c-2.7-0.5-5.8-1-6-3.2c0.8-1.5,2.3-1,4.1-0.8c0.7,0.1,1.3,0.1,1.8,0.1    c0-0.9-0.5-1.1-1.6-1.5c-0.8-0.3-1.9-0.7-3.4-1.6c-3.3-1.9-9.6-6.7-9.3-9.3c0-0.3,0.2-0.9,1.1-0.9c1.4,0,4.1,1.4,6.2,2.5    c1.1,0.6,2.3,1.2,2.6,1.2c-0.6-0.3-1.2-0.9-2.2-1.6c-7.6-6.6-15.2-13.6-13.3-16.4c1.5-0.3,3.7,1.7,7.3,5c2.7,2.4,6,5.5,7,5.5    c0-0.3-1-1.9-2.2-3.6c-4.7-6.8-14.5-21-11.7-26.3c1.2-0.3,2.5,2,6,8c2.8,4.8,7,12,8.3,12c0.1-0.4-1.1-3.5-2.2-6.6    c-3.6-9.5-6.5-17.4-5.3-19.3c1.6-0.4,3.9,4.4,7.9,13.8c0.8,2,1.6,3.8,2,4.6c-0.2-0.7-0.3-2.1-0.4-3.4c-0.3-3.2-0.6-7.3-0.3-9.2    c0.1-0.8,0.6-1.2,1.4-1.2c0.4,0,0.8,0.1,0.8,0.2c2.7,31.7,29.6,64.1,70.5,64.1c0.5,0.1,0.9,0.6,0.9,1.1l0,0.1l-0.4,0.6l-0.5-0.3    l-0.5,0.2c-1.8,2.5-4.9,4.6-5.2,4.6c-0.4-0.5-1.7-3.1-6.9-4.2c-5.8-1.2-9.4-1.3-11.6-1.3l-1.9,0c-0.8,0-1.2,0-1.5-0.3l-3.1-2.7    c-3.4-2.9-5.6-4.9-9.6-7.4c-2.4-1.5-3.7-1.7-4.5-1.7l-1,0c-0.6,0-1.2-0.1-2-0.8c-2.7-2.3-4.4-5-6.2-8c-1.5-2.4-3-4.9-5.2-7.6    c-5-5.8-8.9-8-9-8l0,0.8c-0.4,0.2-1.4-0.2-2.3-0.2c-0.4,0-0.6,0.1-0.7,0.2c0.4,3.5,1.4,4.3,2.1,4.8c0.5,0.4,1,0.7,0.9,1.6    c0,0.8-1,0.8-1.4,0.8l-1.2,0c-0.6,0-0.8,0.1-0.9,0.2c0.6,2,2.8,3.5,4.4,4.6c1,0.6,1.7,1.1,2,1.6l0.1,0.1l0.1,0.7    c-0.2,0.3-0.6,0.3-0.9,0.3l-1.5-0.1c0.2,1.5,2.7,2.5,4.7,3.3c1,0.4,2,0.8,2.6,1.1c0.3,0.2,0.7,0.4,0.6,0.8    c-0.1,0.4-0.6,0.5-1.3,0.7c-0.3,0.1-0.9,0.2-1,0.3c0.1,0.2,1,0.8,1.7,1.1c1,0.6,1.7,0.9,1.6,1.4c-0.1,0.5-0.8,0.7-1.4,0.9    c-0.4,0.1-1,0.3-1,0.5c0.5,0.8,2.2,1.5,3.5,2c1.7,0.7,2.4,1,2.5,1.4c0,0.5-0.5,0.7-1,0.9c-0.3,0.1-0.7,0.3-0.8,0.5    c0.8,1.1,2.1,1.1,3.3,1.1c1.1,0,2.2,0,2.7,0.7l0.2,0.7c-0.1,0.6-0.9,1.2-1.7,1.7c-0.4,0.2-0.9,0.6-1,0.7    c3.1,1.8,11.6,5.9,18.1,7.1c2.1,0.4,4.2,0.6,6.5,0.6c0.9,0,1.7,0,2.3,0l1,0c0.5,0,0.8,0,0.9,0.3    C242.5,317.6,240.1,318.6,235.6,318.6L235.6,318.6z M193.6,293.6c-0.9,0-1.1,0.2-1.2,0.2c0.2,1.9,3.1,2.4,5.5,2.8    c1.8,0.3,3.1,0.5,3.7,1.2l0.1,0.1l0,0.6c-0.2,0.5-1.2,0.6-2.8,0.6c-0.8,0-2.2,0.1-2.3,0.3c0.2,1.1,2.7,1.7,4.5,2.1    c1.7,0.4,2.5,0.7,2.6,1.2c0.1,0.7-0.8,0.8-1.8,1c-0.8,0.1-1.7,0.3-2,0.6c0,1,2.3,1.3,4,1.5c1.7,0.2,3.3,0.4,4,0.9l0.3,0.6    c-0.1,0.4-0.5,0.5-1.3,0.6c-0.3,0.1-1.1,0.2-1.2,0.4c0,0,0,0.4,2,1.4c5,2.5,11.8,5.9,21,7.7c2.4,0.5,4.6,0.7,6.7,0.7    c4.4,0,6.5-1.1,6.7-1.3l-1.4,0.3c-0.6,0-1.4,0-2.3,0c-2.3,0-4.5-0.2-6.6-0.6c-6.5-1.2-15.1-5.4-18.3-7.2c-0.3-0.9,0.2-1.3,0.9-1.7    c0.6-0.4,1.4-0.9,1.5-1.3c-0.4-0.7-1.3-0.7-2.3-0.7c-1.3,0-2.8,0-3.7-1.1l-0.2-0.8c0.1-0.5,0.6-0.7,1.1-0.9    c0.2-0.1,0.6-0.3,0.7-0.4c-0.1-0.2-1.3-0.6-2.1-0.9c-1.5-0.6-3.1-1.2-3.6-1.9l-0.2-0.8c0.2-0.5,0.8-0.6,1.4-0.8    c0.3-0.1,1-0.3,1-0.4c-0.1-0.1-0.8-0.5-1.3-0.8c-1.1-0.6-1.8-1-1.9-1.5c0.3-0.8,0.8-0.9,1.4-1c0.3-0.1,0.7-0.2,0.8-0.3    c-0.9-0.4-1.9-0.8-2.9-1.2c-2.2-0.9-4.8-1.9-5.5-3.2l-0.1-0.2l0-0.7c0.3-0.6,1.1-0.4,1.8-0.3l0.7,0c-0.1-0.6-0.8-1.1-1.7-1.7    c-1.8-1.2-4-2.6-4.6-4.5c-0.1-0.4-0.1-0.7,0-0.9c0.3-0.4,0.8-0.4,1.4-0.4l1.2,0c0.3,0,0.8,0,0.8-0.2c0-0.6-0.2-0.7-0.7-1.1    c-0.8-0.6-2-1.5-2.4-4.8c-0.1-0.4,0-0.7,0.2-0.9c0.7-0.7,3.2,0,3.3,0l0.1-0.8c0,0,0,0,0,0c0.6,0,4.5,2.2,9.5,8    c2.3,2.7,3.8,5.2,5.3,7.6c1.7,2.9,3.4,5.7,6,7.9c0.7,0.6,1.2,0.7,1.7,0.7l1,0c1,0,2.3,0.2,4.8,1.8c4.1,2.6,6.3,4.5,9.7,7.5    l3.1,2.7c0.2,0.1,0.8,0.1,1.1,0.1l1.9,0c2.2,0,5.9,0.1,11.7,1.3c5.7,1.2,7,4.2,7,4.3c0-0.3,2.8-2.2,4.1-4.2    c0.2-0.4,0.5-0.6,0.9-0.6l0.6,0.2l0-0.9l-0.3,0.3c-41.1,0-68.3-32.6-70.9-64.3c-0.1,0-0.3,0-0.4,0c-0.5,0-0.7,0.2-0.8,0.7    c-0.3,1.9,0.1,6,0.3,9.1c0.3,3.5,0.3,4.1,0.1,4.3c-0.8-0.5-1.6-2.2-2.8-5.2c-1.9-4.4-5.8-13.6-6.8-13.7c-1.1,1.8,3,12.4,5.4,18.8    c2.2,5.9,2.5,6.8,2.2,7.1l-0.6,0.3c-1.5,0-4.5-4.9-8.8-12.3c-2.1-3.6-4.5-7.7-5.1-7.9c-2.4,5,7.2,18.9,11.8,25.6    c2,3,2.4,3.6,2.4,3.9l0,0.3l-0.7,0.4c-1.1,0-3.6-2.1-7.4-5.7c-2.6-2.4-5.6-5.1-6.4-5.1c-1.9,2.7,9.4,12.4,13.1,15.6    c0.9,0.8,1.6,1.4,1.7,1.5c0.3,0.4,0.5,0.7,0.4,0.9c-0.8,0.2-1.6-0.2-3.2-1c-2-1-4.7-2.4-6-2.4c-0.5,0-0.5,0.2-0.6,0.3    c-0.3,2,5.2,6.5,9,8.7c1.5,0.9,2.5,1.2,3.3,1.5c1.1,0.4,1.8,0.6,2.4,1.7c-0.3,1.8-1.6,0.9-2.9,0.8    C195.1,293.6,194.3,293.6,193.6,293.6L193.6,293.6z"/></g><path class="st1" d="M294.3,321.6c-1.5-0.3-1.3,0.9-1.3,0.9c0.1,1.5-0.9,3-2.1,3.3c-0.9,0.2-0.5,0.9-0.8,1.6l-3.9-0.2   c-6.2,3.4-13.9,4.5-23.3,3.5c0,0-1.9,1.5-3.7,3c-1.8,1.5-2.9,1.9-3.3,3.1c-0.4,1.2,0.9,1.9,2.5,1.9c1.6,0,3.7-1.5,3.7-1.5   s0.3,1.2,1.7,1.4c1.5,0.1,4.2-0.9,4.2-0.9s2.3,1,4,0.8c1.7-0.2,3.2-1.3,3.2-1.3s0.5,2,2.2,2.1c1.7,0.1,4.4-2.1,4.4-2.1   s1.3,1.5,2.8,1.3c1.6-0.2,3.5-2,3.5-2s1.9,0.8,3.8,0.3c1.8-0.5,3.6-2.4,3.6-2.4s1.6,1.4,3.1,0.9c1.5-0.5,2.5-2.5,2.5-2.5   s4,1.6,6.6,0.3c1.9-0.9,1.4-3.8,1.4-3.8s10.9,1.6,10.4-5.5C319.4,322.8,302,323,294.3,321.6L294.3,321.6z"/><g><path class="st1" d="M277.5,339.6L277.5,339.6c-1.7-0.1-2.3-1.6-2.5-2.1c-0.2,0.4-1.4,1.2-2.9,1.4c-2.1-0.1-4-0.8-4.1-0.8    c0.1,0.1-2.3,0.9-3.8,0.9c-1.5-0.1-2.1-0.9-2.3-1.5c-0.1,0.4-1.9,1.6-3.4,1.6c-1.3,0-2.3-0.4-2.7-1c-0.3-0.4-0.3-0.8-0.2-1.3    c0.3-0.9,0.9-1.4,1.8-2c0.5-0.3,1-0.7,1.6-1.2c1.7-1.5,3.7-3,3.7-3c2.4,0.2,4.5,0.3,6.5,0.3c6.5,0,12.1-1.3,16.8-3.8l4,0.2    c-0.2-0.8-0.1-1.3,0.7-1.6c1.1-0.3,2-1.7,1.9-3c0,0-0.1-0.5,0.2-0.9c0.2-0.2,0.5-0.4,0.9-0.4c4.7,0.8,11.9,1.1,17.6,1.4    c7.7,0.3,8.3,0.4,8.3,0.9c0.1,1.6-0.3,2.8-1.2,3.8c-1.7,1.8-4.8,2.2-7.1,2.2l0,0c-1.2,0-2.1-0.1-2.4-0.1c0.3,0.3,0.6,2.9-1.3,3.8    c-2.1,1-6.2-0.1-6.8-0.3c0.1,0.2-0.8,2.1-2.3,2.5c-1.4,0.4-3.1-0.7-3.4-0.9c0.1,0.3-1.6,1.9-3.4,2.5c-1.6,0.5-3.8-0.2-4-0.3    c0.1,0.1-1.8,1.9-3.4,2.1c0,0,0,0,0,0c-1.7,0-2.8-1.1-3-1.3C281.7,337.6,279.3,339.6,277.5,339.6L277.5,339.6z M275.1,337    c0.5,0.2,0.9,1.9,2.3,2l0.1,0.3V339c1.6,0,4.1-2.1,4.1-2.1c0.4,0,1.4,1.2,2.7,1.2c1.7-0.2,3.6-2,3.6-2c0.3,0,1.4,0.4,2.7,0.4    c0.5,0,0.9-0.1,1.3-0.2c1.7-0.5,3.4-2.3,3.5-2.4c0.2,0.1,1.5,0.9,2.7,0.9c1.9-0.5,2.9-2.5,2.9-2.5c0.4-0.2,2.4,0.6,4.4,0.6    c0.9,0,1.7-0.2,2.3-0.5c1.6-0.8,1.2-3.4,1.2-3.5c0.3-0.4,1.4-0.2,2.7-0.2l0,0c2.2,0,5.1-0.3,6.6-2c0.8-0.9,1.2-2,1.1-3.4    c-0.3-0.1-4.1-0.2-7.7-0.4c-5.8-0.2-12.9-0.5-17.2-1.3l-0.8,0.1c0,2-1.1,3.7-2.5,4.1c-0.4,0.1-0.4,0.2-0.4,0.6    c0,0.2,0,0.5-0.2,0.8l-4.2,0c-6,3.3-13.9,4.5-23.3,3.5c0,0.1-1.8,1.5-3.5,2.9c-0.6,0.5-1.2,0.9-1.6,1.3c-0.9,0.6-1.4,1-1.6,1.7    c-0.1,0.3-0.1,0.6,0.1,0.8c0.3,0.4,1.1,0.7,2.1,0.8c0,0,0,0,0,0c1.6,0,3.5-1.4,3.5-1.4c0.5,0.2,0.7,1.2,1.9,1.3c0,0,0,0,0,0    c1.7,0,4-0.8,4-0.9c0.2,0,2,0.8,3.6,0.8C273.7,338,275.1,337,275.1,337L275.1,337z"/></g><path class="st1" d="M271.2,314c0,0,3.1-1.2,8.7-2.4c10.5-2.2,14.1-1.5,14.9-2.1c8.3-9.2,14.4-10,20.5-12.4   c4.8-4,6.4-9.8,11.5-15.7c5.1-5.9,8.1-6.4,8.1-6.4l0.7,1.3c0,0,2.7-2.1,2.6-0.3c-0.2,2.6-2.4,5.1-2.3,7c0.1,1.2,3.7-0.5,3.4,0.6   c-0.9,2.7-3.8,4.4-4.6,5.6c-1.3,1.7,3.3-0.6,2.4,1.2c-0.9,1.8-5.6,3.6-7.4,4.8c-1.1,0.7,1.2,0.9,1,1.7c-0.2,0.8-5,2.6-5,3.2   c0.1,0.8,1.3,0.9,0.7,1.5c-1,1.1-5,1.3-5,1.9c-0.1,0.7,0.8,1.4-0.1,2.5c-1.4,1.7-2.5,0-3.1,1.4c-0.3,0.8,2.3,2.5,0.5,2.8   c-2.4,0.4-4.2,1.5-6.3,2.8c-0.8,0.5-4.3,1.1-6.4,1.7c-1.3,0.3-8.8,1.3-8.5,1.9c0.3,0.6,5,0.5,14.9-1.2c4.3-0.7,6.8-1.3,13.5-3.4   c7.6-2.4-2-2.6-0.4-3.6c1.6-1,8.2-0.5,8.5-2c0.3-1.7-3.7-1.2-3.6-2.1c0.1-0.9,8.1-0.9,8.5-3c0.3-1.2-4.6-0.3-3.4-1.8   c1.2-1.4,7.5-1.8,7.7-4.5c0.1-1.6-5.2,0.3-4.5-1c0.3-0.5,2.4-1.1,4.6-2.6c3.3-2.3,8.6-6.3,8.3-8.7c-0.4-2.8-11,6.6-10.1,3   c0.3-1.3,17.4-14.8,14.6-18.1c-1.9-2.2-14.1,12.3-14.5,9.4c-0.1-0.9,19-22.5,15.5-29.3c-0.9-1.8-15.3,25.8-17.3,23.4   c-0.6-0.7,12.3-27.2,10.2-29.9c-1-1.3-3,3.1-5.2,8c-2.2,4.9-4.6,10.3-5.1,11c-0.5,0.7,0.6-10.4,0.1-13.8c-0.2-1.4-1.8-0.8-1.8-0.8   c-2.2,34.6-35.5,60.3-62,64.1c-6.9,1-9.1,4.2-16.6,8.5c-2.5,1.4-6.4,2.1-9.8,4c-3.4,1.9-5.8,4.7-6.9,6.5c-0.5,0.9,0.2,3.4,0.9,3.7   c0.7,0.3,0.7-1.9,1.5-2.2c0.8-0.4,0.8,0.8,1.7,0.7c0.9,0,2-0.9,2-0.9s18.7,0,26.7-0.3c1.4,0,3.8-0.6,4.8-1.7   c-0.3-0.9-2.5-0.4-3.8-0.3c-5.7-0.4-13,0-18.3-0.4c0,0-0.9-0.1-0.8-0.9c0-0.4,3.4-4,3.4-4h-2.6c0,0-1.6,0.9-2.4,1   c-0.8,0.1-1.1-0.4-0.8-0.7C259.2,319.4,271.2,314,271.2,314L271.2,314z"/><g><path class="st1" d="M244,332.5l-0.2,0c-0.6-0.2-0.9-1.2-1-1.6c-0.3-0.8-0.4-1.9,0-2.5c1.3-2,3.8-4.8,7-6.6c1.8-1,3.7-1.7,5.6-2.3    c1.6-0.5,3.1-1,4.2-1.7c2.4-1.4,4.3-2.6,5.9-3.7c3.5-2.4,6-4.1,10.8-4.8c28.1-4,59.6-30.6,61.7-63.8c0.6-0.7,2.2-0.4,2.4,0.8    c0.3,1.9,0.1,5.9-0.1,9.2c-0.1,2.1-0.2,4.2-0.1,4.5c0-0.6,2-5.1,3.9-9.4l0.7-1.6c2.6-5.7,3.9-8.4,5.1-8.4h0.1l0.5,0.3    c1.3,1.8-2.5,11.2-7.2,22.5c-1.5,3.6-3,7.1-3,7.5c1.4-0.1,6.5-8.2,10.2-14.2c4.3-6.9,6-9.5,6.7-9.5c3.2,5.6-7.5,19.5-12.6,26.2    c-1.3,1.7-2.4,3.2-2.5,3.5c0.9-0.2,3.5-2.2,5.7-4.3c3.1-2.8,6.3-5.7,7.9-5.7h0.1l0.6,0.3c2,2.4-4.3,8.6-11,14.8    c-1.7,1.6-3.4,3.2-3.5,3.5c0.8,0.5,2.5-0.6,4.1-1.5c3-1.8,5.8-3.1,6-1.6c0.2,1.9-2.6,4.9-8.5,8.9c-1.1,0.8-2.2,1.3-3.1,1.7    c-0.6,0.3-1.3,0.6-1.4,0.8c0.7,0,1.1,0,1.5,0c1.3-0.1,2.4-0.2,2.8,0.3l0.2,0.6c-0.1,1.9-2.7,2.7-4.9,3.4c-1.3,0.4-2.5,0.8-2.9,1.3    c0,0.4,0.9,0.5,1.4,0.5c0.9,0.1,1.7,0.2,2,0.6c-0.2,2-3.2,2.5-5.8,2.9c-1.1,0.2-2.5,0.4-2.6,0.6c0.1,0.1,0.8,0.2,1.2,0.3    c1.1,0.2,2.6,0.5,2.4,1.8c-0.2,1.1-2.3,1.3-4.7,1.5c-1.6,0.2-3.3,0.3-3.9,0.7c0.1,0,0.8,0.3,1.3,0.4c1.2,0.3,2.3,0.7,2.3,1.4    c0,0.5-0.4,1-3.2,1.9c-6.8,2.1-9.2,2.7-13.5,3.4c-7.7,1.3-11.4,1.5-12.9,1.5c-1.8,0-2.1-0.2-2.3-0.5c0.2-0.8,1.5-1.1,6.1-1.8    c1.2-0.2,2.2-0.3,2.6-0.5c0.6-0.2,1.4-0.3,2.2-0.5c1.7-0.4,3.5-0.8,4-1.1c2-1.3,3.8-2.3,6.4-2.8c0.4-0.3,0.1-0.8-0.1-1.1    c-0.4-0.5-0.8-1.1-0.6-1.6c0.2-0.6,0.6-0.8,1.1-0.8l0.7,0.3v-0.3c0.4,0,0.8-0.1,1.3-0.7c0.5-0.6,0.3-1,0.2-1.5    c-0.1-0.3-0.2-0.6-0.2-0.9c0-0.5,0.8-0.7,2.2-1c1.1-0.3,2.5-0.6,3-1.1c-0.4-0.5-0.7-0.8-0.8-1.3c-0.1-0.5,0.5-0.8,2.4-1.8    c0.9-0.5,2.4-1.2,2.5-1.5c0-0.1-0.3-0.3-0.6-0.5c-0.4-0.2-0.7-0.4-0.7-0.7l0-0.2l0.4-0.5c0.5-0.3,1.3-0.7,2.2-1.2    c2-1,4.5-2.3,5.1-3.5c-0.4-0.3-0.8-0.2-1.1-0.2c-0.3,0.1-0.7,0.1-0.9,0.1l-0.6-0.3c-0.1-0.3,0-0.6,0.2-0.9    c0.3-0.4,0.8-0.8,1.3-1.3c1.2-1.1,2.7-2.4,3.3-4.2c-0.4,0-0.8,0.1-1.1,0.1c-1.4,0.2-2.3-0.1-2.3-0.6c0-1,0.5-2.1,1-3.3    c0.6-1.2,1.1-2.5,1.3-3.7c-0.7-0.4-1.6,0.2-2.1,0.6l-1.1-1.4c0,0.2-2.9,0.9-7.6,6.4c-2.3,2.6-3.8,5.2-5.3,7.6    c-1.8,3-3.5,5.8-6.2,8.1c-1.2,0.5-2.2,0.8-3.3,1.2c-5.1,1.8-10.3,3.6-17.1,11.1c-0.4,0.3-1.1,0.4-2.6,0.5c-2.3,0.2-6,0.4-12.4,1.7    c-5.5,1.1-8.7,2.3-8.7,2.4c-0.1,0-12,5.4-16,8.4c1.2,0,2.4-0.6,2.8-0.8l2.8,0c-1.3,2.2-3,4-3.1,4.3l0.5,0.8l0-0.3    c5.3,0.3,12.7,0,18.3,0.4l0.9-0.1c1.2-0.1,2.7-0.6,3.1,0.6c-1.2,1.5-3.7,2.1-5.1,2.1c-7.9,0.2-26.2,0.3-26.7,0.3    c0.1,0-1,0.9-2,0.9c0,0,0,0,0,0c-0.6,0-0.9-0.3-1.1-0.6c-0.7-0.1-0.9,0.5-1.1,0.9C244.6,331.9,244.5,332.5,244,332.5L244,332.5z     M338.8,245.6c-0.3,0-0.6,0.1-0.6,0.1c-1.9,33.2-33.7,60-62,64.1c-4.6,0.7-7.1,2.3-10.5,4.7c-1.7,1.1-3.5,2.4-6,3.8    c-1.2,0.7-2.7,1.2-4.3,1.7c-1.8,0.6-3.7,1.3-5.5,2.2c-3.1,1.7-5.5,4.4-6.8,6.4c-0.2,0.3-0.2,1.2,0.1,2c0.2,0.7,0.5,1.1,0.7,1.2h0    c0.1-0.1,0.2-0.5,0.3-0.8c0.2-0.6,0.4-1.2,0.9-1.5c0.8-0.1,1,0.1,1.2,0.3c0.2,0.2,0.3,0.4,0.6,0.4c0.9,0,1.8-0.9,1.9-0.9    c0.2-0.1,18.9-0.1,26.9-0.3c1.3,0,3.7-0.6,4.6-1.6c-0.2,0.1-0.5,0-1.1,0c-0.4,0-1,0.1-1.4,0.1l-1,0.1c-5.7-0.4-13.1,0-18.4-0.4    c-0.1,0-0.5,0-0.8-0.4c-0.2-0.2-0.3-0.5-0.2-0.8c0-0.3,1.2-1.7,3.4-4.1l-2.4,0.5l0,0c0.1,0-1.5,0.9-2.4,1    c-0.7,0.1-1.1-0.2-1.2-0.5l-0.1-0.2l0.3-0.5c4-3.1,15.6-8.3,16.1-8.5c0,0,3.2-1.2,8.8-2.4c6.4-1.3,10.2-1.6,12.5-1.7    c1.2-0.1,2-0.1,2.2-0.3c6.9-7.6,12.2-9.5,17.3-11.3c1.1-0.4,2.1-0.7,3.2-1.2c2.5-2.2,4.2-4.9,6-7.9c1.5-2.5,3-5.1,5.3-7.7    c5.1-5.9,8.1-6.5,8.3-6.5l1,1.4c-0.1-0.3,1.1-1.1,1.9-1.1l0.6,0.2c0.2,0.2,0.2,0.4,0.2,0.8c-0.1,1.4-0.8,2.7-1.3,3.9    c-0.5,1.1-1,2.2-1,3c0.8,0.2,1.2,0.1,1.6,0c0.4-0.1,0.8-0.1,1.1-0.1l0.7,0.2c-0.6,2.5-2.2,3.9-3.4,5c-0.5,0.5-1,0.9-1.2,1.2    c0.1,0.2,0.4,0.2,0.7,0.1c0.4-0.1,0.7-0.1,1-0.1h0.2l0.6,0.3c0.2,0.3,0,0.7-0.1,0.8c-0.7,1.4-3.2,2.6-5.4,3.7    c-0.8,0.4-1.6,0.8-2.1,1.2c0.7,0.6,1.3,0.9,1.1,1.5c-0.1,0.5-1,1-2.8,1.9c-0.8,0.4-2,1-2.1,1.2c0,0.2,0.2,0.3,0.5,0.5l0.5,0.6    c-0.8,1.2-2.2,1.5-3.5,1.8c-0.7,0.2-1.6,0.4-1.7,0.5c0.3,1.1,0.6,1.8-0.1,2.6c-0.7,0.8-1.3,1-1.8,1l-0.7,0c-0.2,0-0.4,0-0.5,0.4    c-0.1,0.2,0.3,0.6,0.5,1c0.4,0.5,0.8,1,0.6,1.5c-0.1,0.3-0.4,0.4-0.8,0.5c-2.4,0.5-4.2,1.5-6.2,2.7c-0.6,0.4-2.4,0.8-4.2,1.2    c-0.8,0.2-1.6,0.4-2.2,0.5c-0.4,0.1-1.4,0.3-2.6,0.5c-1.6,0.3-4.5,0.7-5.4,1.1c0.7,0,2.6,0.6,14.3-1.5c4.3-0.7,6.7-1.3,13.4-3.4    c2.8-0.9,2.8-1.3,2.8-1.3c0-0.3-1.3-0.6-1.8-0.8c-1.1-0.3-1.7-0.5-1.7-0.9l0-0.2l0.3-0.4c0.8-0.5,2.4-0.7,4.2-0.8    c1.6-0.2,4.1-0.4,4.2-1c0.1-0.6-0.7-0.9-1.9-1.1c-0.9-0.2-1.7-0.3-1.7-1c0.1-0.6,0.9-0.7,3.1-1.1c2.1-0.3,5.2-0.8,5.4-1.9    c-0.2-0.3-1-0.3-1.6-0.4c-0.9-0.1-1.8-0.2-2-0.7l-0.1-0.2l0.3-0.6c0.5-0.6,1.7-1,3.2-1.5c2-0.6,4.4-1.4,4.5-2.9    c-0.2-0.4-1.2-0.4-2.4-0.3c-0.9,0.1-1.8,0.3-2.1-0.2c0.2-1,0.8-1.2,1.7-1.7c0.8-0.4,1.9-0.9,3-1.7c7.4-5.2,8.3-7.5,8.2-8.4    c-1.3-0.2-3.3,0.9-5.1,2c-1.9,1.1-3.5,2.1-4.4,2.1l-0.6-0.3c-0.2-0.2-0.2-0.5-0.1-0.9c0.1-0.4,1-1.3,3.7-3.8    c4.5-4.2,12.8-11.9,11-14c-1.6,0-5.1,2.9-7.8,5.4c-3.1,2.8-5,4.5-6,4.5h-0.3l-0.4-0.6c0-0.3,0.4-0.9,2.6-3.9    c5-6.6,15.5-20.4,12.9-25.4c-0.5,0.3-3.5,5.1-6.1,9.3c-5.4,8.7-9,14.4-10.6,14.4c-0.8-0.6-0.6-1.2,2.4-8.3    c3.2-7.6,8.5-20.3,7.3-21.9c-1-0.1-3.1,4.6-4.7,8l-0.7,1.6c-2,4.5-4,8.8-4.4,9.5c-0.7-0.2-0.7-0.8-0.5-4.9    c0.2-3.2,0.3-7.3,0.1-9.1C339.6,245.9,339.3,245.6,338.8,245.6L338.8,245.6z"/></g><path class="st0" d="M252.6,325.4c0-0.4-0.9-0.2-1.6,0c-0.7,0.2-1,0.5-1,0.9c0,0.4,0.9,0.2,1.5,0.1   C252.2,326.1,252.7,325.8,252.6,325.4L252.6,325.4z"/><g><path class="st0" d="M250.5,326.8h-0.3l-0.5-0.5c0-0.6,0.4-1,1.2-1.2c0.6-0.1,0.9-0.2,1.2-0.2h0.3l0.4,0.5c0,0.6-0.5,1-1.3,1.2    C251.2,326.7,250.8,326.8,250.5,326.8L250.5,326.8z"/></g><path class="st1" d="M276.6,189.7c2.3,0.4,3.4-0.8,3.7-2.5c0.5-2.3-0.5-13.6-0.5-13.6s-5.2,10.1-5.7,12.4   C273.8,187.6,274.3,189.3,276.6,189.7L276.6,189.7z"/><path class="st1" d="M284.8,192.2c2.1,0.9,3.5-0.1,4.1-1.7c0.9-2.1,2.2-13.4,2.2-13.4s-7.1,8.9-8,11   C282.4,189.6,282.7,191.3,284.8,192.2L284.8,192.2z"/><path class="st1" d="M292.4,196.3c1.9,1.3,3.4,0.5,4.4-0.9c1.3-1.9,4.7-12.8,4.7-12.8s-8.7,7.3-10,9.3   C290.6,193.3,290.5,195,292.4,196.3L292.4,196.3z"/><path class="st1" d="M299,201.7c1.6,1.6,3.3,1.2,4.5,0c1.6-1.6,7.1-11.6,7.1-11.6s-10,5.5-11.6,7.1   C297.8,198.4,297.4,200.1,299,201.7L299,201.7z"/><path class="st1" d="M304.5,208.4c1.3,1.9,3,1.8,4.4,0.9c1.9-1.3,9.2-10,9.2-10s-10.8,3.5-12.8,4.7   C304,204.9,303.2,206.5,304.5,208.4L304.5,208.4z"/><path class="st1" d="M308.6,216c0.9,2.1,2.6,2.4,4.2,1.7c2.1-0.9,11-8,11-8s-11.3,1.3-13.4,2.1C308.7,212.5,307.7,213.8,308.6,216   L308.6,216z"/><path class="st1" d="M311.1,224.2c0.5,2.2,2.1,2.8,3.7,2.5c2.2-0.5,12.4-5.7,12.4-5.7s-11.3-1-13.6-0.5   C311.9,220.8,310.6,221.9,311.1,224.2L311.1,224.2z"/><path class="st1" d="M311.9,232.8c0,2.3,1.5,3.2,3.2,3.2c2.3,0,13.2-3.2,13.2-3.2s-10.9-3.2-13.2-3.2   C313.4,229.6,311.9,230.5,311.9,232.8L311.9,232.8z"/><path class="st1" d="M311.1,241.3c-0.4,2.3,0.8,3.4,2.5,3.7c2.2,0.5,13.6-0.5,13.6-0.5s-10.1-5.2-12.4-5.7   C313.1,238.5,311.5,239.1,311.1,241.3L311.1,241.3z"/><path class="st1" d="M308.6,249.6c-0.9,2.1,0.1,3.5,1.7,4.1c2.1,0.9,13.4,2.1,13.4,2.1s-8.9-7.1-11-8   C311.1,247.2,309.4,247.4,308.6,249.6L308.6,249.6z"/><path class="st1" d="M304.5,257.1c-1.3,1.9-0.5,3.4,0.9,4.4c1.9,1.3,12.8,4.7,12.8,4.7s-7.3-8.7-9.2-10   C307.5,255.3,305.8,255.2,304.5,257.1L304.5,257.1z"/><path class="st1" d="M299,263.8c-1.6,1.6-1.2,3.3,0,4.5c1.6,1.6,11.6,7.1,11.6,7.1s-5.5-10-7.1-11.6   C302.3,262.6,300.7,262.2,299,263.8L299,263.8z"/><path class="st1" d="M292.4,269.3c-1.9,1.3-1.8,3-0.9,4.4c1.3,1.9,10,9.3,10,9.3s-3.5-10.9-4.7-12.8   C295.8,268.7,294.3,268,292.4,269.3L292.4,269.3z"/><path class="st1" d="M284.8,273.3c-2.1,0.9-2.4,2.6-1.7,4.2c0.9,2.1,8,11,8,11s-1.3-11.3-2.2-13.4   C288.3,273.5,286.9,272.4,284.8,273.3L284.8,273.3z"/><path class="st1" d="M243.6,269.3c-1.9-1.3-3.4-0.5-4.4,0.9c-1.3,1.9-4.7,12.8-4.7,12.8s8.7-7.3,10-9.3   C245.4,272.2,245.5,270.5,243.6,269.3L243.6,269.3z"/><path class="st1" d="M237,263.8c-1.6-1.6-3.3-1.2-4.5,0c-1.6,1.6-7.1,11.6-7.1,11.6s10-5.5,11.6-7.1   C238.2,267.1,238.6,265.4,237,263.8L237,263.8z"/><path class="st1" d="M231.5,257.1c-1.3-1.9-3-1.8-4.4-0.9c-1.9,1.3-9.2,10-9.2,10s10.8-3.5,12.8-4.7   C232,260.6,232.8,259.1,231.5,257.1L231.5,257.1z"/><path class="st1" d="M227.4,249.6c-0.9-2.1-2.6-2.4-4.1-1.7c-2.1,0.9-11,8-11,8s11.3-1.3,13.4-2.1   C227.3,253,228.3,251.7,227.4,249.6L227.4,249.6z"/><path class="st1" d="M224.9,241.3c-0.5-2.2-2-2.8-3.7-2.5c-2.2,0.5-12.4,5.7-12.4,5.7s11.3,1,13.6,0.5   C224.1,244.7,225.4,243.6,224.9,241.3L224.9,241.3z"/><path class="st1" d="M224.1,232.8c0-2.3-1.5-3.2-3.2-3.2c-2.3,0-13.2,3.2-13.2,3.2s10.9,3.2,13.2,3.2   C222.6,235.9,224.1,235.1,224.1,232.8L224.1,232.8z"/><path class="st1" d="M224.9,224.2c0.4-2.3-0.8-3.4-2.5-3.7c-2.3-0.4-13.6,0.5-13.6,0.5s10.1,5.2,12.4,5.7   C222.9,227,224.5,226.4,224.9,224.2L224.9,224.2z"/><path class="st1" d="M227.4,216c0.9-2.1-0.1-3.5-1.7-4.1c-2.1-0.9-13.4-2.1-13.4-2.1s8.9,7.1,11,8   C224.9,218.3,226.6,218.1,227.4,216L227.4,216z"/><path class="st1" d="M231.5,208.4c1.3-1.9,0.5-3.4-0.9-4.4c-1.9-1.3-12.8-4.7-12.8-4.7s7.3,8.7,9.2,10   C228.5,210.2,230.2,210.3,231.5,208.4L231.5,208.4z"/><path class="st1" d="M237,201.7c1.6-1.6,1.2-3.3,0-4.5c-1.6-1.6-11.6-7.1-11.6-7.1s5.5,10,7.1,11.6   C233.7,202.9,235.3,203.3,237,201.7L237,201.7z"/><path class="st1" d="M268,194.2c21.3,0,38.6,17.3,38.6,38.7c0,21.3-17.3,38.6-38.6,38.6c-21.4,0-38.7-17.3-38.7-38.6   C229.3,211.5,246.6,194.2,268,194.2L268,194.2z"/><path class="st1" d="M268,188.9c2.3,0,3.1-1.5,3.1-3.2c0-2.3-3.1-13.2-3.1-13.2s-3.2,10.9-3.2,13.2   C264.8,187.4,265.7,188.9,268,188.9L268,188.9z"/><path class="st1" d="M276.6,275.8c-2.2,0.5-2.8,2.1-2.5,3.7c0.4,2.3,5.7,12.4,5.7,12.4s1-11.4,0.5-13.6   C279.9,276.6,278.8,275.4,276.6,275.8L276.6,275.8z"/><path class="st1" d="M268,276.7c-2.3,0-3.2,1.5-3.2,3.2c0,2.3,3.2,13.2,3.2,13.2s3.1-10.9,3.1-13.2   C271.2,278.1,270.3,276.7,268,276.7L268,276.7z"/><path class="st1" d="M259.4,275.8c-2.3-0.4-3.4,0.8-3.7,2.5c-0.4,2.2,0.5,13.6,0.5,13.6s5.2-10.1,5.7-12.4   C262.2,277.9,261.7,276.3,259.4,275.8L259.4,275.8z"/><path class="st1" d="M251.2,273.3c-2.1-0.9-3.5,0.1-4.1,1.7c-0.9,2.1-2.1,13.4-2.1,13.4s7.1-8.9,8-11   C253.6,275.9,253.3,274.2,251.2,273.3L251.2,273.3z"/><path class="st1" d="M243.6,196.3c1.9-1.3,1.8-3,0.9-4.4c-1.3-1.9-10-9.3-10-9.3s3.5,10.9,4.7,12.8   C240.2,196.8,241.7,197.5,243.6,196.3L243.6,196.3z"/><path class="st1" d="M251.2,192.2c2.1-0.9,2.4-2.6,1.7-4.2c-0.9-2.1-8-11-8-11s1.3,11.3,2.1,13.4   C247.7,192.1,249.1,193.1,251.2,192.2L251.2,192.2z"/><path class="st1" d="M259.4,189.7c2.2-0.5,2.8-2,2.5-3.7c-0.4-2.3-5.7-12.4-5.7-12.4s-1,11.3-0.5,13.6   C256.1,188.9,257.2,190.2,259.4,189.7L259.4,189.7z"/></g></svg>